<svg xmlns="http://www.w3.org/2000/svg" viewBox="0 0 512 512"><path fill="#18a058" d="M143.8 55.4c-6.5 3.4-12 6.4-12.3 6.7-.2.3 9.6 19.9 21.9 43.5l22.4 42.9-61.4.3-61.4.2v80H16v150h37v80h406v-80h37V229h-37l-.2-39.8-.3-39.7-61.4-.3c-53.4-.2-61.2-.4-60.7-1.7.3-.8 10.4-20.4 22.5-43.5l21.9-42-12.4-6.4-12.4-6.3-1.9 3.1c-1 1.7-12.8 24.1-26.1 49.9L303.7 149l-48.1-.2-48.1-.3-24.5-47c-13.5-25.9-25.2-48.2-26-49.7l-1.5-2.7zm34.9 166.9c20.3 10.6 21.3 38.8 1.8 49.8-18.7 10.5-41.6-2.9-41.4-24.1.1-11.8 5-19.9 15-24.9 5.9-3 7-3.2 13.9-2.9 4.3.3 8.9 1.2 10.7 2.1m178.9.5c9.8 5 16.2 16.9 15.1 27.9-2.3 22.4-29.2 33-46.1 18.2-6.2-5.5-8.8-10.8-9.4-19.2-.8-11.9 4.4-21.3 15-26.7 5.8-2.9 6.9-3.1 13.8-2.7 5 .2 8.9 1.1 11.6 2.5M345 360v28H167v-56h178z"/></svg>